<?xml version="1.0" standalone="no"?>
<!DOCTYPE svg PUBLIC "-//W3C//DTD SVG 20010904//EN"
 "http://www.w3.org/TR/2001/REC-SVG-20010904/DTD/svg10.dtd">
<svg version="1.0" xmlns="http://www.w3.org/2000/svg"
 width="1280.000000pt" height="853.000000pt" viewBox="0 0 1280.000000 853.000000"
 preserveAspectRatio="xMidYMid meet">
<metadata>
Created by potrace 1.15, written by Peter Selinger 2001-2017
</metadata>
<g transform="translate(0.000000,853.000000) scale(0.100000,-0.100000)"
fill="#000000" stroke="none">
<path d="M9591 7544 c-96 -35 -178 -69 -183 -76 -13 -20 -58 -172 -52 -177 2
-3 34 5 69 16 39 13 62 16 58 10 -14 -24 -736 -907 -739 -905 -1 2 24 93 56
203 32 110 54 202 49 203 -13 5 -260 -67 -286 -84 -21 -13 -53 -99 -53 -143 0
-18 4 -20 28 -15 15 4 37 11 50 15 12 5 22 6 22 3 0 -4 -718 -924 -2784 -3566
-414 -530 -421 -538 -456 -538 -19 0 -419 -25 -887 -55 l-853 -54 -35 -27
c-20 -15 -34 -28 -33 -29 5 -4 1868 111 1872 116 12 13 3176 3990 3196 4017
13 17 25 30 27 29 1 -2 -8 -40 -21 -85 -13 -45 -20 -85 -15 -88 5 -3 19 -2 32
2 18 6 20 4 11 -7 -11 -14 -2302 -2829 -2906 -3571 l-299 -367 -52 -5 c-29 -3
-477 -31 -996 -61 l-944 -55 -34 -26 c-19 -14 -33 -28 -31 -30 2 -2 469 23
1038 56 1030 59 1033 59 1056 82 12 13 815 979 1784 2148 2271 2737 2264 2729
2267 2726 1 -1 -11 -44 -28 -95 -16 -52 -27 -96 -24 -99 10 -10 99 18 118 37
15 15 187 523 187 552 0 16 -34 7 -209 -57z"/>
<path d="M8860 7360 c-58 -22 -124 -47 -147 -56 -41 -15 -44 -19 -63 -83 -22
-74 -25 -101 -11 -101 5 0 28 7 51 15 24 8 44 14 45 13 1 -2 -166 -228 -371
-503 -206 -275 -374 -497 -374 -494 0 3 20 84 45 179 25 95 43 175 41 177 -2
3 -57 -10 -121 -28 -130 -36 -135 -41 -151 -138 -7 -44 -5 -46 44 -32 17 5 32
7 32 4 0 -4 -2542 -3535 -2560 -3556 -4 -4 -309 -30 -678 -56 -632 -46 -672
-50 -701 -71 -17 -12 -31 -25 -31 -28 0 -7 1390 85 1416 93 7 2 591 794 1300
1759 708 966 1289 1755 1290 1753 2 -2 -3 -27 -11 -57 -21 -77 -20 -94 6 -87
14 4 18 2 11 -6 -5 -7 -580 -775 -1277 -1707 -697 -932 -1272 -1701 -1279
-1707 -8 -9 -238 -28 -751 -62 -407 -28 -757 -52 -777 -55 -21 -2 -52 -16 -69
-30 l-31 -26 54 1 c29 0 398 24 820 52 l768 52 1691 2220 c930 1221 1696 2226
1704 2234 9 9 4 -17 -12 -73 -14 -48 -23 -90 -20 -92 11 -11 90 21 102 40 12
19 145 465 145 487 0 15 -20 10 -130 -31z"/>
<path d="M9095 6159 c-83 -17 -144 -35 -151 -44 -14 -19 -48 -144 -41 -152 3
-3 31 -1 61 4 l55 10 -27 -33 c-55 -68 -417 -473 -423 -473 -3 -1 18 79 48
177 61 203 62 214 31 207 -13 -2 -75 -14 -138 -25 -63 -11 -120 -26 -126 -32
-15 -16 -47 -126 -40 -137 3 -4 26 -5 51 -1 25 4 45 5 45 3 0 -2 -659 -776
-1465 -1721 l-1466 -1717 -1112 -60 -1112 -60 -32 -25 c-18 -13 -33 -26 -33
-29 0 -4 520 21 1156 54 l1156 60 1145 1315 c629 723 1292 1485 1471 1692 180
207 330 377 333 377 4 1 -4 -33 -16 -75 -24 -76 -24 -78 16 -86 10 -2 -505
-586 -1453 -1648 l-1467 -1645 -128 -8 c-70 -4 -620 -32 -1221 -62 l-1093 -54
-35 -26 c-20 -15 -34 -29 -32 -31 2 -2 571 24 1263 57 l1260 60 25 24 c15 14
800 875 1745 1914 946 1038 1721 1888 1722 1887 1 -1 -9 -38 -22 -81 -14 -44
-23 -85 -21 -91 5 -13 91 -3 107 13 8 8 158 467 159 486 0 12 -49 6 -195 -24z"/>
<path d="M9844 6146 c-94 -18 -178 -35 -187 -39 -15 -5 -76 -172 -66 -181 2
-2 31 0 63 5 32 6 63 8 67 7 5 -2 -224 -240 -509 -529 -284 -290 -518 -526
-519 -524 -2 1 23 83 54 183 31 100 53 185 50 188 -9 9 -280 -16 -293 -27 -15
-12 -49 -127 -40 -136 4 -4 27 -6 51 -4 25 1 45 0 45 -3 0 -3 -662 -711 -1472
-1573 l-1472 -1568 -45 -3 c-25 -2 -629 -29 -1342 -61 l-1296 -58 -36 -28
c-20 -16 -35 -30 -34 -31 1 -1 619 25 1372 57 754 32 1377 59 1386 59 9 0 684
695 1499 1545 816 850 1484 1544 1486 1542 2 -2 -5 -30 -16 -62 -26 -76 -26
-93 4 -97 20 -3 -176 -206 -1285 -1333 -721 -731 -1386 -1406 -1479 -1499
l-169 -170 -1446 -58 -1446 -58 -35 -26 c-19 -15 -33 -29 -30 -31 2 -2 302 7
667 21 365 14 1035 40 1489 57 l825 31 410 404 c225 222 1148 1137 2050 2033
902 896 1641 1628 1643 1626 2 -2 -10 -41 -26 -87 -17 -47 -27 -90 -24 -96 5
-7 26 -8 61 -4 41 5 58 13 72 32 17 23 189 498 189 520 0 14 -26 11 -216 -24z"/>
<path d="M9805 5198 c-77 -5 -149 -12 -160 -17 -14 -6 -28 -31 -43 -78 -12
-38 -22 -75 -22 -81 0 -7 26 -12 69 -14 l69 -3 -261 -235 c-143 -129 -264
-236 -268 -238 -4 -2 21 83 57 190 35 106 64 194 64 196 0 3 -74 3 -165 0
-186 -4 -182 -3 -209 -82 -26 -81 -24 -85 41 -88 l57 -3 -1649 -1564 -1649
-1565 -1550 -52 c-853 -29 -1572 -53 -1597 -53 -36 -1 -55 -8 -84 -31 l-38
-30 61 0 c33 0 774 22 1647 50 l1586 50 242 224 c1887 1749 3082 2853 3084
2852 2 -2 -8 -36 -22 -76 -31 -92 -31 -98 3 -102 24 -3 -93 -111 -1018 -943
-575 -517 -1319 -1186 -1654 -1487 -531 -479 -612 -548 -640 -548 -17 0 -427
-11 -911 -25 -484 -14 -1238 -36 -1676 -49 l-796 -22 -37 -29 c-20 -15 -35
-29 -34 -31 2 -1 793 18 1758 43 l1755 47 1500 1315 c825 724 1717 1506 1983
1739 265 232 482 421 482 418 0 -3 -14 -42 -30 -87 -17 -45 -29 -88 -26 -96 8
-20 99 -17 124 5 19 16 192 464 192 497 0 17 -14 17 -235 3z"/>
<path d="M10008 4663 c-16 -20 -58 -127 -58 -149 0 -11 17 -14 76 -14 43 0 74
-4 72 -9 -3 -11 -1121 -902 -1125 -897 -2 1 25 82 59 180 36 105 57 181 52
186 -11 11 -286 35 -307 27 -16 -6 -56 -115 -50 -134 3 -7 21 -13 41 -13 21 0
43 -4 50 -9 9 -5 -433 -385 -1459 -1252 -810 -684 -1482 -1251 -1493 -1259
-17 -12 -217 -19 -1211 -42 -654 -15 -1479 -34 -1833 -42 l-642 -15 -35 -28
-35 -28 87 -2 c49 -2 896 14 1884 35 l1796 38 214 176 c118 97 792 651 1499
1232 707 581 1286 1053 1288 1048 1 -4 -7 -34 -18 -67 -25 -74 -25 -83 3 -87
12 -2 21 -7 21 -12 -1 -5 -671 -542 -1490 -1193 l-1488 -1183 -91 0 c-49 0
-926 -16 -1948 -34 l-1858 -34 -37 -29 -37 -28 53 -3 c50 -3 2932 40 3624 54
l326 7 2113 1633 c1163 898 2115 1632 2116 1630 1 -1 -11 -36 -27 -77 -16 -40
-29 -84 -30 -96 0 -22 4 -23 69 -23 43 0 72 5 78 13 12 15 203 493 203 507 0
6 -80 10 -218 10 -196 0 -220 -2 -234 -17z"/>
<path d="M10919 4474 c-23 -26 -80 -164 -73 -175 3 -5 20 -9 38 -9 18 0 60 -3
94 -6 l61 -7 -541 -374 c-297 -205 -542 -372 -543 -371 -2 2 33 94 78 206 50
124 77 206 71 211 -11 11 -379 42 -399 35 -20 -8 -70 -143 -57 -156 5 -5 37
-12 71 -15 33 -3 61 -9 61 -12 -1 -3 -855 -638 -1899 -1411 l-1898 -1405 -184
-7 c-101 -4 -1037 -17 -2079 -29 -1821 -20 -1896 -22 -1926 -40 -18 -11 -37
-26 -44 -34 -12 -14 28 -15 366 -10 514 8 3318 35 3629 35 l251 0 149 107
c1643 1184 3691 2650 3693 2645 1 -4 -11 -41 -27 -82 -32 -83 -29 -97 22 -102
28 -3 -187 -154 -1880 -1325 l-1912 -1322 -78 -6 c-43 -2 -1031 -10 -2196 -17
l-2119 -11 -44 -30 c-25 -16 -43 -31 -41 -34 3 -2 1016 1 2253 7 l2248 11
1465 981 c1601 1072 2249 1506 3053 2045 290 194 529 353 532 353 2 0 -15 -43
-39 -96 -24 -53 -41 -102 -39 -109 6 -16 147 -29 172 -16 19 10 262 533 262
564 0 15 -12 17 -97 17 -54 0 -174 3 -268 6 -158 6 -171 5 -186 -12z"/>
<path d="M10243 3128 c-19 -23 -64 -140 -60 -153 3 -6 39 -18 81 -25 42 -7 76
-16 76 -19 0 -5 -693 -417 -721 -429 -3 -1 27 79 67 180 59 145 72 184 62 194
-16 14 -345 84 -363 77 -17 -6 -58 -106 -53 -129 2 -13 22 -23 67 -34 l63 -15
-233 -149 c-129 -82 -885 -565 -1682 -1073 l-1448 -923 -2328 0 -2328 0 -39
-35 -39 -34 2050 -1 c1128 0 2199 -3 2380 -6 l330 -5 1689 1040 c929 573 1691
1039 1693 1037 2 -1 -8 -33 -22 -70 -14 -36 -25 -71 -25 -76 0 -6 14 -16 32
-23 l32 -13 -70 -40 c-38 -22 -793 -468 -1679 -990 l-1610 -950 -2445 11
-2445 12 -38 -25 c-21 -14 -40 -29 -42 -32 -5 -9 716 -16 3200 -33 l1799 -13
1831 1039 c1006 571 1955 1110 2108 1197 152 87 277 155 277 151 0 -3 -16 -42
-35 -86 -41 -94 -39 -98 53 -116 53 -11 64 -11 76 1 24 27 217 473 208 482 -5
5 -98 24 -208 43 -109 19 -211 37 -225 40 -15 4 -30 1 -36 -7z"/>
</g>
</svg>
